<svg xmlns="http://www.w3.org/2000/svg" xmlns:xlink="http://www.w3.org/1999/xlink" width="20" height="17" version="1.1" viewBox="0 0 20 17"><title>Twitter</title><g id="Symbols" fill="none" fill-rule="evenodd" stroke="none" stroke-width="1"><g id="3.-Layouts/Navigation-Bar/-01" fill="#238FCD" transform="translate(-1370.000000, -24.000000)"><g id="Social-Media" transform="translate(1272.000000, 20.000000)"><g id="↳-icon-Color"><path d="M22,5.92375 C21.25625,6.25 20.46375,6.46625 19.6375,6.57125 C20.4875,6.06375 21.13625,5.26625 21.44125,4.305 C20.64875,4.7775 19.77375,5.11125 18.84125,5.2975 C18.08875,4.49625 17.01625,4 15.84625,4 C13.57625,4 11.74875,5.8425 11.74875,8.10125 C11.74875,8.42625 11.77625,8.73875 11.84375,9.03625 C8.435,8.87 5.41875,7.23625 3.3925,4.7475 C3.03875,5.36125 2.83125,6.06375 2.83125,6.82 C2.83125,8.24 3.5625,9.49875 4.6525,10.2275 C3.99375,10.215 3.3475,10.02375 2.8,9.7225 C2.8,9.735 2.8,9.75125 2.8,9.7675 C2.8,11.76 4.22125,13.415 6.085,13.79625 C5.75125,13.8875 5.3875,13.93125 5.01,13.93125 C4.7475,13.93125 4.4825,13.91625 4.23375,13.86125 C4.765,15.485 6.2725,16.67875 8.065,16.7175 C6.67,17.80875 4.89875,18.46625 2.98125,18.46625 C2.645,18.46625 2.3225,18.45125 2,18.41 C3.81625,19.58125 5.96875,20.25 8.29,20.25 C15.835,20.25 19.96,14 19.96,8.5825 C19.96,8.40125 19.95375,8.22625 19.945,8.0525 C20.75875,7.475 21.4425,6.75375 22,5.92375 Z" transform="translate(96.000000, 0.000000)"/></g></g></g></g></svg>