<?xml version="1.0" encoding="UTF-8"?>
<svg width="18px" height="18px" viewBox="0 0 18 18" version="1.1" xmlns="http://www.w3.org/2000/svg" xmlns:xlink="http://www.w3.org/1999/xlink">
    <title>Instagram</title>
    <g id="Symbols" stroke="none" stroke-width="1" fill="none" fill-rule="evenodd">
        <g id="3.-Layouts/Navigation-Bar/-01" transform="translate(-1323.000000, -23.000000)" fill="#238FCD">
            <g id="Social-Media" transform="translate(1272.000000, 20.000000)">
                <g id="↳-icon-Color" transform="translate(48.000000, 0.000000)">
                    <path d="M12,8.34375 C9.96445313,8.34375 8.30859375,9.99960938 8.30859375,12.0351563 C8.30859375,14.0707031 9.96445313,15.7265625 12,15.7265625 C14.0355469,15.7265625 15.6914063,14.0707031 15.6914063,12.0351563 C15.6914063,9.99960938 14.0355469,8.34375 12,8.34375 Z M12,8.34375 C9.96445313,8.34375 8.30859375,9.99960938 8.30859375,12.0351563 C8.30859375,14.0707031 9.96445313,15.7265625 12,15.7265625 C14.0355469,15.7265625 15.6914063,14.0707031 15.6914063,12.0351563 C15.6914063,9.99960938 14.0355469,8.34375 12,8.34375 Z M18.3632812,3 L5.63671875,3 C4.18125,3 3,4.18125 3,5.63671875 L3,18.3632812 C3,19.81875 4.18125,21 5.63671875,21 L18.3632812,21 C19.81875,21 21,19.81875 21,18.3632812 L21,5.63671875 C21,4.18125 19.81875,3 18.3632812,3 Z M12,16.78125 C9.38441016,16.78125 7.25390625,14.6507461 7.25390625,12.0351562 C7.25390625,9.41949609 9.38441016,7.2890625 12,7.2890625 C14.6155898,7.2890625 16.7460938,9.41949609 16.7460938,12.0351562 C16.7460938,14.6507461 14.6155898,16.78125 12,16.78125 Z M17.8007813,7.2890625 C17.2207031,7.2890625 16.7460938,6.81445313 16.7460938,6.234375 C16.7460938,5.65429688 17.2207031,5.1796875 17.8007813,5.1796875 C18.3808594,5.1796875 18.8554688,5.65429688 18.8554688,6.234375 C18.8554688,6.81445313 18.3808594,7.2890625 17.8007813,7.2890625 Z M12,8.34375 C9.96445313,8.34375 8.30859375,9.99960938 8.30859375,12.0351563 C8.30859375,14.0707031 9.96445313,15.7265625 12,15.7265625 C14.0355469,15.7265625 15.6914063,14.0707031 15.6914063,12.0351563 C15.6914063,9.99960938 14.0355469,8.34375 12,8.34375 Z M12,8.34375 C9.96445313,8.34375 8.30859375,9.99960938 8.30859375,12.0351563 C8.30859375,14.0707031 9.96445313,15.7265625 12,15.7265625 C14.0355469,15.7265625 15.6914063,14.0707031 15.6914063,12.0351563 C15.6914063,9.99960938 14.0355469,8.34375 12,8.34375 Z M12,8.34375 C9.96445313,8.34375 8.30859375,9.99960938 8.30859375,12.0351563 C8.30859375,14.0707031 9.96445313,15.7265625 12,15.7265625 C14.0355469,15.7265625 15.6914063,14.0707031 15.6914063,12.0351563 C15.6914063,9.99960938 14.0355469,8.34375 12,8.34375 Z"></path>
                </g>
            </g>
        </g>
    </g>
</svg>