<?xml version="1.0" encoding="UTF-8"?>
<svg width="11px" height="20px" viewBox="0 0 11 20" version="1.1" xmlns="http://www.w3.org/2000/svg" xmlns:xlink="http://www.w3.org/1999/xlink">
    <title>Facebook</title>
    <g id="Symbols" stroke="none" stroke-width="1" fill="none" fill-rule="evenodd">
        <g id="3.-Layouts/Navigation-Bar/-01" transform="translate(-1279.000000, -22.000000)" fill="#238FCD">
            <g id="↳-icon-Color" transform="translate(1272.000000, 20.000000)">
                <path d="M17.3276289,2.00412371 L14.7575258,2 C11.8701031,2 10.0041237,3.91443299 10.0041237,6.87752577 L10.0041237,9.12639175 L7.42,9.12639175 C7.19670103,9.12639175 7.01587629,9.30742268 7.01587629,9.53072165 L7.01587629,12.7890722 C7.01587629,13.0123711 7.19690722,13.1931959 7.42,13.1931959 L10.0041237,13.1931959 L10.0041237,21.4150515 C10.0041237,21.6383505 10.1849485,21.8191753 10.4082474,21.8191753 L13.7797938,21.8191753 C14.0030928,21.8191753 14.1839175,21.6381443 14.1839175,21.4150515 L14.1839175,13.1931959 L17.2053608,13.1931959 C17.4286598,13.1931959 17.6094845,13.0123711 17.6094845,12.7890722 L17.6107216,9.53072165 C17.6107216,9.42350515 17.5680412,9.32082474 17.4923711,9.24494845 C17.416701,9.16907216 17.3136082,9.12639175 17.2063918,9.12639175 L14.1839175,9.12639175 L14.1839175,7.22 C14.1839175,6.30371134 14.402268,5.8385567 15.5958763,5.8385567 L17.3272165,5.83793814 C17.5503093,5.83793814 17.731134,5.65690722 17.731134,5.43381443 L17.731134,2.40824742 C17.731134,2.18536082 17.5505155,2.00453608 17.3276289,2.00412371 Z"></path>
            </g>
        </g>
    </g>
</svg>