<?xml version="1.0" encoding="UTF-8"?>
<svg width="32px" height="32px" viewBox="0 0 32 32" version="1.1" xmlns="http://www.w3.org/2000/svg" xmlns:xlink="http://www.w3.org/1999/xlink">
    <title>Logo</title>
    <g id="Symbols" stroke="none" stroke-width="1" fill="none" fill-rule="evenodd">
        <g id="3.-Layouts/Navigation-Bar/-_/-Tablet" transform="translate(-24.000000, -16.000000)">
            <g id="Logo" transform="translate(24.000000, 16.000000)">
                <rect id="Background" fill="#238FCD" x="0" y="0" width="31.999998" height="31.999998" rx="2.2400946"></rect>
                <g id="Content" transform="translate(2.666667, 3.200000)">
                    <path d="M15.0337247,5.09157623 C15.2360159,5.78273782 15.4593758,6.56239012 15.703811,7.43055651 C15.9482462,8.29872289 16.209535,9.19637661 16.4876854,10.1235446 C16.7658358,11.0507126 17.0481964,11.9778667 17.3347756,12.9050347 C17.6213548,13.8322026 17.899501,14.6919273 18.1692226,15.4842345 C18.3883714,14.6244969 18.6117312,13.6889142 18.8393088,12.6774582 C19.0668864,11.6660022 19.2818176,10.6208467 19.4841088,9.54196032 C19.6864,8.46307393 19.8844738,7.38841807 20.0783362,6.31796049 C20.2721986,5.2475029 20.4534151,4.2149904 20.6219911,3.22039202 L24.7183674,3.22039202 C24.1283514,6.15361438 23.4498432,9.1289361 22.6828224,12.1464465 C21.9158016,15.1639568 21.0855772,18.0297058 20.1921245,20.7437793 L16.5761874,20.7437793 C15.9861714,19.1254498 15.4130216,17.4270721 14.8567208,15.6485953 C14.30042,13.8701185 13.7525563,12.0874541 13.2131131,10.3005485 C12.6736699,12.0874541 12.1342348,13.8701185 11.5947916,15.6485953 C11.0553484,17.4270721 10.4906273,19.1254498 9.90061127,20.7437793 L6.2846742,20.7437793 C5.39122142,18.0297058 4.56099708,15.1639568 3.79397629,12.1464465 C3.02695551,9.1289361 2.34844729,6.15361438 1.7584313,3.22039202 L6.03181147,3.22039202 C6.20038747,4.2149904 6.38581829,5.2475029 6.58810948,6.31796049 C6.79040068,7.38841807 7.00111752,8.46307393 7.22026631,9.54196032 C7.43941511,10.6208467 7.66277496,11.6660022 7.89035255,12.6774582 C8.11793015,13.6889142 8.34971867,14.6244969 8.58572506,15.4842345 C8.88916186,14.6582121 9.18416543,13.7816301 9.47074463,12.8544621 C9.75732382,11.9272941 10.03547,11.00014 10.3051916,10.0729721 C10.5749132,9.14580407 10.8235591,8.25236468 11.0511367,7.3926271 C11.2787143,6.53288951 11.4852168,5.76588023 11.6706504,5.09157623 L15.0337247,5.09157623 Z" id="W" fill="#FFFFFF"></path>
                    <path d="M12.9853257,0.0136759704 L12.8015981,0.621390316 L13.1054552,0.713254113 L13.2891828,0.105539767 L12.9853257,0.0136759704 Z M12.6178705,1.22910466 L12.4341429,1.83681901 L12.738,1.9286828 L12.9217276,1.32096846 L12.6178705,1.22910466 Z M12.2504153,2.44453335 L12.0666877,3.0522477 L12.3705449,3.1441115 L12.5542725,2.53639715 L12.2504153,2.44453335 Z M11.8829601,3.65996205 L11.6992325,4.26767639 L12.0030897,4.35954019 L12.1868173,3.75182584 L11.8829601,3.65996205 Z M11.5155049,4.87539074 L11.3317773,5.48310508 L11.6356345,5.57496888 L11.8193621,4.96725453 L11.5155049,4.87539074 Z M11.1480497,6.09081943 L10.9643221,6.69853377 L11.2681793,6.79039757 L11.4519069,6.18268323 L11.1480497,6.09081943 Z M10.7805945,7.30624812 L10.5968669,7.91396247 L10.9007241,8.00582626 L11.0844517,7.39811192 L10.7805945,7.30624812 Z M10.4131394,8.52167681 L10.2294118,9.12939116 L10.5332689,9.22125495 L10.7169965,8.61354061 L10.4131394,8.52167681 Z M10.0456842,9.7371055 L9.86195657,10.3448198 L10.1658137,10.4366836 L10.3495413,9.8289693 L10.0456842,9.7371055 Z M9.67822898,10.9525342 L9.49450139,11.5602485 L9.79835856,11.6521123 L9.98208615,11.044398 L9.67822898,10.9525342 Z M9.3107738,12.1679629 L9.1270462,12.7756772 L9.43090338,12.867541 L9.61463097,12.2598267 L9.3107738,12.1679629 Z M8.94331861,13.3833916 L8.75959102,13.9911059 L9.06344819,14.0829697 L9.24717578,13.4752554 L8.94331861,13.3833916 Z M8.57586342,14.5988203 L8.39213583,15.2065346 L8.695993,15.2983984 L8.8797206,14.6906841 L8.57586342,14.5988203 Z M8.20840824,15.814249 L8.02468064,16.4219633 L8.32853782,16.5138271 L8.51226541,15.9061128 L8.20840824,15.814249 Z M7.84095305,17.0296777 L7.65722546,17.637392 L7.96108263,17.7292558 L8.14481023,17.1215415 L7.84095305,17.0296777 Z M7.47349787,18.2451063 L7.28977027,18.8528207 L7.59362745,18.9446845 L7.77735504,18.3369701 L7.47349787,18.2451063 Z M7.10604268,19.460535 L6.92231509,20.0682494 L7.22617226,20.1601132 L7.40989985,19.5523988 L7.10604268,19.460535 Z M6.73858749,20.6759637 L6.5548599,21.2836781 L6.85871707,21.3755419 L7.04244467,20.7678275 L6.73858749,20.6759637 Z M6.37113231,21.8913924 L6.18740472,22.4991068 L6.49126189,22.5909706 L6.67498948,21.9832562 L6.37113231,21.8913924 Z M6.00367712,23.1068211 L5.81994953,23.7145355 L6.1238067,23.8063993 L6.3075343,23.1986849 L6.00367712,23.1068211 Z M5.63622194,24.3222498 L5.45249434,24.9299641 L5.75635152,25.0218279 L5.94007911,24.4141136 L5.63622194,24.3222498 Z M5.26876675,25.5376785 L5.08503916,26.1453928 L5.38889633,26.2372566 L5.57262392,25.6295423 L5.26876675,25.5376785 Z M4.90131156,26.7531072 L4.76728686,27.1964197 L5.07114404,27.2882835 L5.20516874,26.844971 L4.90131156,26.7531072 Z" id="Path-2" fill="#A9BECB" fill-rule="nonzero"></path>
                    <path d="M16.1461098,0.0136759704 L15.9623822,0.621390316 L16.2662394,0.713254113 L16.449967,0.105539767 L16.1461098,0.0136759704 Z M15.7786546,1.22910466 L15.594927,1.83681901 L15.8987842,1.9286828 L16.0825118,1.32096846 L15.7786546,1.22910466 Z M15.4111994,2.44453335 L15.2274718,3.0522477 L15.531329,3.1441115 L15.7150566,2.53639715 L15.4111994,2.44453335 Z M15.0437442,3.65996205 L14.8600167,4.26767639 L15.1638738,4.35954019 L15.3476014,3.75182584 L15.0437442,3.65996205 Z M14.6762891,4.87539074 L14.4925615,5.48310508 L14.7964186,5.57496888 L14.9801462,4.96725453 L14.6762891,4.87539074 Z M14.3088339,6.09081943 L14.1251063,6.69853377 L14.4289635,6.79039757 L14.612691,6.18268323 L14.3088339,6.09081943 Z M13.9413787,7.30624812 L13.7576511,7.91396247 L14.0615083,8.00582626 L14.2452359,7.39811192 L13.9413787,7.30624812 Z M13.5739235,8.52167681 L13.3901959,9.12939116 L13.6940531,9.22125495 L13.8777807,8.61354061 L13.5739235,8.52167681 Z M13.2064683,9.7371055 L13.0227407,10.3448198 L13.3265979,10.4366836 L13.5103255,9.8289693 L13.2064683,9.7371055 Z M12.8390131,10.9525342 L12.6552855,11.5602485 L12.9591427,11.6521123 L13.1428703,11.044398 L12.8390131,10.9525342 Z M12.4715579,12.1679629 L12.2878304,12.7756772 L12.5916875,12.867541 L12.7754151,12.2598267 L12.4715579,12.1679629 Z M12.1041028,13.3833916 L11.9203752,13.9911059 L12.2242323,14.0829697 L12.4079599,13.4752554 L12.1041028,13.3833916 Z M11.7366476,14.5988203 L11.55292,15.2065346 L11.8567772,15.2983984 L12.0405047,14.6906841 L11.7366476,14.5988203 Z M11.3691924,15.814249 L11.1854648,16.4219633 L11.489322,16.5138271 L11.6730496,15.9061128 L11.3691924,15.814249 Z M11.0017372,17.0296777 L10.8180096,17.637392 L11.1218668,17.7292558 L11.3055944,17.1215415 L11.0017372,17.0296777 Z M10.634282,18.2451063 L10.4505544,18.8528207 L10.7544116,18.9446845 L10.9381392,18.3369701 L10.634282,18.2451063 Z M10.2668268,19.460535 L10.0830992,20.0682494 L10.3869564,20.1601132 L10.570684,19.5523988 L10.2668268,19.460535 Z M9.89937164,20.6759637 L9.71564405,21.2836781 L10.0195012,21.3755419 L10.2032288,20.7678275 L9.89937164,20.6759637 Z M9.53191646,21.8913924 L9.34818887,22.4991068 L9.65204604,22.5909706 L9.83577363,21.9832562 L9.53191646,21.8913924 Z M9.16446127,23.1068211 L8.98073368,23.7145355 L9.28459085,23.8063993 L9.46831845,23.1986849 L9.16446127,23.1068211 Z M8.79700609,24.3222498 L8.61327849,24.9299641 L8.91713567,25.0218279 L9.10086326,24.4141136 L8.79700609,24.3222498 Z M8.4295509,25.5376785 L8.24582331,26.1453928 L8.54968048,26.2372566 L8.73340807,25.6295423 L8.4295509,25.5376785 Z M8.06209571,26.7531072 L7.92807101,27.1964197 L8.23192819,27.2882835 L8.36595289,26.844971 L8.06209571,26.7531072 Z" id="Path-2-Copy" fill="#A9BECB" fill-rule="nonzero"></path>
                    <path d="M21.8355213,0.0136759704 L21.6517937,0.621390316 L21.9556509,0.713254113 L22.1393784,0.105539767 L21.8355213,0.0136759704 Z M21.4680661,1.22910466 L21.2843385,1.83681901 L21.5881957,1.9286828 L21.7719233,1.32096846 L21.4680661,1.22910466 Z M21.1006109,2.44453335 L20.9168833,3.0522477 L21.2207405,3.1441115 L21.4044681,2.53639715 L21.1006109,2.44453335 Z M20.7331557,3.65996205 L20.5494281,4.26767639 L20.8532853,4.35954019 L21.0370129,3.75182584 L20.7331557,3.65996205 Z M20.3657005,4.87539074 L20.1819729,5.48310508 L20.4858301,5.57496888 L20.6695577,4.96725453 L20.3657005,4.87539074 Z M19.9982453,6.09081943 L19.8145178,6.69853377 L20.1183749,6.79039757 L20.3021025,6.18268323 L19.9982453,6.09081943 Z M19.6307902,7.30624812 L19.4470626,7.91396247 L19.7509197,8.00582626 L19.9346473,7.39811192 L19.6307902,7.30624812 Z M19.263335,8.52167681 L19.0796074,9.12939116 L19.3834646,9.22125495 L19.5671921,8.61354061 L19.263335,8.52167681 Z M18.8958798,9.7371055 L18.7121522,10.3448198 L19.0160094,10.4366836 L19.199737,9.8289693 L18.8958798,9.7371055 Z M18.5284246,10.9525342 L18.344697,11.5602485 L18.6485542,11.6521123 L18.8322818,11.044398 L18.5284246,10.9525342 Z M18.1609694,12.1679629 L17.9772418,12.7756772 L18.281099,12.867541 L18.4648266,12.2598267 L18.1609694,12.1679629 Z M17.7935142,13.3833916 L17.6097866,13.9911059 L17.9136438,14.0829697 L18.0973714,13.4752554 L17.7935142,13.3833916 Z M17.426059,14.5988203 L17.2423314,15.2065346 L17.5461886,15.2983984 L17.7299162,14.6906841 L17.426059,14.5988203 Z M17.0586039,15.814249 L16.8748763,16.4219633 L17.1787334,16.5138271 L17.362461,15.9061128 L17.0586039,15.814249 Z M16.6911487,17.0296777 L16.5074211,17.637392 L16.8112783,17.7292558 L16.9950058,17.1215415 L16.6911487,17.0296777 Z M16.3236935,18.2451063 L16.1399659,18.8528207 L16.4438231,18.9446845 L16.6275507,18.3369701 L16.3236935,18.2451063 Z M15.9562383,19.460535 L15.7725107,20.0682494 L16.0763679,20.1601132 L16.2600955,19.5523988 L15.9562383,19.460535 Z M15.5887831,20.6759637 L15.4050555,21.2836781 L15.7089127,21.3755419 L15.8926403,20.7678275 L15.5887831,20.6759637 Z M15.2213279,21.8913924 L15.0376003,22.4991068 L15.3414575,22.5909706 L15.5251851,21.9832562 L15.2213279,21.8913924 Z M14.8538727,23.1068211 L14.6701451,23.7145355 L14.9740023,23.8063993 L15.1577299,23.1986849 L14.8538727,23.1068211 Z M14.4864176,24.3222498 L14.30269,24.9299641 L14.6065471,25.0218279 L14.7902747,24.4141136 L14.4864176,24.3222498 Z M14.1189624,25.5376785 L13.9352348,26.1453928 L14.239092,26.2372566 L14.4228195,25.6295423 L14.1189624,25.5376785 Z M13.7515072,26.7531072 L13.6174825,27.1964197 L13.9213397,27.2882835 L14.0553644,26.844971 L13.7515072,26.7531072 Z" id="Path-2" fill="#A9BECB" fill-rule="nonzero" transform="translate(17.878430, 13.650980) scale(-1, 1) translate(-17.878430, -13.650980) "></path>
                    <path d="M18.0425803,0.0136759704 L17.8588527,0.621390316 L18.1627099,0.713254113 L18.3464375,0.105539767 L18.0425803,0.0136759704 Z M17.6751251,1.22910466 L17.4913975,1.83681901 L17.7952547,1.9286828 L17.9789823,1.32096846 L17.6751251,1.22910466 Z M17.3076699,2.44453335 L17.1239423,3.0522477 L17.4277995,3.1441115 L17.6115271,2.53639715 L17.3076699,2.44453335 Z M16.9402147,3.65996205 L16.7564871,4.26767639 L17.0603443,4.35954019 L17.2440719,3.75182584 L16.9402147,3.65996205 Z M16.5727595,4.87539074 L16.389032,5.48310508 L16.6928891,5.57496888 L16.8766167,4.96725453 L16.5727595,4.87539074 Z M16.2053044,6.09081943 L16.0215768,6.69853377 L16.3254339,6.79039757 L16.5091615,6.18268323 L16.2053044,6.09081943 Z M15.8378492,7.30624812 L15.6541216,7.91396247 L15.9579788,8.00582626 L16.1417064,7.39811192 L15.8378492,7.30624812 Z M15.470394,8.52167681 L15.2866664,9.12939116 L15.5905236,9.22125495 L15.7742512,8.61354061 L15.470394,8.52167681 Z M15.1029388,9.7371055 L14.9192112,10.3448198 L15.2230684,10.4366836 L15.406796,9.8289693 L15.1029388,9.7371055 Z M14.7354836,10.9525342 L14.551756,11.5602485 L14.8556132,11.6521123 L15.0393408,11.044398 L14.7354836,10.9525342 Z M14.3680284,12.1679629 L14.1843008,12.7756772 L14.488158,12.867541 L14.6718856,12.2598267 L14.3680284,12.1679629 Z M14.0005732,13.3833916 L13.8168457,13.9911059 L14.1207028,14.0829697 L14.3044304,13.4752554 L14.0005732,13.3833916 Z M13.6331181,14.5988203 L13.4493905,15.2065346 L13.7532476,15.2983984 L13.9369752,14.6906841 L13.6331181,14.5988203 Z M13.2656629,15.814249 L13.0819353,16.4219633 L13.3857925,16.5138271 L13.5695201,15.9061128 L13.2656629,15.814249 Z M12.8982077,17.0296777 L12.7144801,17.637392 L13.0183373,17.7292558 L13.2020649,17.1215415 L12.8982077,17.0296777 Z M12.5307525,18.2451063 L12.3470249,18.8528207 L12.6508821,18.9446845 L12.8346097,18.3369701 L12.5307525,18.2451063 Z M12.1632973,19.460535 L11.9795697,20.0682494 L12.2834269,20.1601132 L12.4671545,19.5523988 L12.1632973,19.460535 Z M11.7958421,20.6759637 L11.6121145,21.2836781 L11.9159717,21.3755419 L12.0996993,20.7678275 L11.7958421,20.6759637 Z M11.4283869,21.8913924 L11.2446594,22.4991068 L11.5485165,22.5909706 L11.7322441,21.9832562 L11.4283869,21.8913924 Z M11.0609318,23.1068211 L10.8772042,23.7145355 L11.1810613,23.8063993 L11.3647889,23.1986849 L11.0609318,23.1068211 Z M10.6934766,24.3222498 L10.509749,24.9299641 L10.8136062,25.0218279 L10.9973337,24.4141136 L10.6934766,24.3222498 Z M10.3260214,25.5376785 L10.1422938,26.1453928 L10.446151,26.2372566 L10.6298786,25.6295423 L10.3260214,25.5376785 Z M9.9585662,26.7531072 L9.8245415,27.1964197 L10.1283987,27.2882835 L10.2624234,26.844971 L9.9585662,26.7531072 Z" id="Path-2-Copy" fill="#A9BECB" fill-rule="nonzero" transform="translate(14.085489, 13.650980) scale(-1, 1) translate(-14.085489, -13.650980) "></path>
                    <path d="M0.494117642,21.0953893 L1.12899759,21.0953893 L1.12899759,20.7620633 L0.494117642,20.7620633 L0.494117642,21.0953893 Z M1.76387755,21.0953893 L2.3987575,21.0953893 L2.3987575,20.7620633 L1.76387755,20.7620633 L1.76387755,21.0953893 Z M3.03363745,21.0953893 L3.66851741,21.0953893 L3.66851741,20.7620633 L3.03363745,20.7620633 L3.03363745,21.0953893 Z M4.30339736,21.0953893 L4.93827731,21.0953893 L4.93827731,20.7620633 L4.30339736,20.7620633 L4.30339736,21.0953893 Z M5.57315726,21.0953893 L6.20803722,21.0953893 L6.20803722,20.7620633 L5.57315726,20.7620633 L5.57315726,21.0953893 Z M6.84291717,21.0953893 L7.47779712,21.0953893 L7.47779712,20.7620633 L6.84291717,20.7620633 L6.84291717,21.0953893 Z M8.11267708,21.0953893 L8.74755703,21.0953893 L8.74755703,20.7620633 L8.11267708,20.7620633 L8.11267708,21.0953893 Z M9.38243698,21.0953893 L10.0173169,21.0953893 L10.0173169,20.7620633 L9.38243698,20.7620633 L9.38243698,21.0953893 Z M10.6521969,21.0953893 L11.2870768,21.0953893 L11.2870768,20.7620633 L10.6521969,20.7620633 L10.6521969,21.0953893 Z M11.9219568,21.0953893 L12.5568367,21.0953893 L12.5568367,20.7620633 L11.9219568,20.7620633 L11.9219568,21.0953893 Z M13.1917167,21.0953893 L13.8265967,21.0953893 L13.8265967,20.7620633 L13.1917167,20.7620633 L13.1917167,21.0953893 Z M14.4614766,21.0953893 L15.0963566,21.0953893 L15.0963566,20.7620633 L14.4614766,20.7620633 L14.4614766,21.0953893 Z M15.7312365,21.0953893 L16.3661165,21.0953893 L16.3661165,20.7620633 L15.7312365,20.7620633 L15.7312365,21.0953893 Z M17.0009964,21.0953893 L17.6358764,21.0953893 L17.6358764,20.7620633 L17.0009964,20.7620633 L17.0009964,21.0953893 Z M18.2707563,21.0953893 L18.9056363,21.0953893 L18.9056363,20.7620633 L18.2707563,20.7620633 L18.2707563,21.0953893 Z M19.5405162,21.0953893 L20.1753962,21.0953893 L20.1753962,20.7620633 L19.5405162,20.7620633 L19.5405162,21.0953893 Z M20.8102761,21.0953893 L21.4451561,21.0953893 L21.4451561,20.7620633 L20.8102761,20.7620633 L20.8102761,21.0953893 Z M22.080036,21.0953893 L22.714916,21.0953893 L22.714916,20.7620633 L22.080036,20.7620633 L22.080036,21.0953893 Z M23.3497959,21.0953893 L23.9846759,21.0953893 L23.9846759,20.7620633 L23.3497959,20.7620633 L23.3497959,21.0953893 Z M24.6195559,21.0953893 L25.1563373,21.0953893 L25.1563373,20.7620633 L24.6195559,20.7620633 L24.6195559,21.0953893 Z" id="Path-3" fill="#A9BECB" fill-rule="nonzero"></path>
                    <path d="M0.494117642,3.3949981 L1.12899759,3.3949981 L1.12899759,3.06167203 L0.494117642,3.06167203 L0.494117642,3.3949981 Z M1.76387755,3.3949981 L2.3987575,3.3949981 L2.3987575,3.06167203 L1.76387755,3.06167203 L1.76387755,3.3949981 Z M3.03363745,3.3949981 L3.66851741,3.3949981 L3.66851741,3.06167203 L3.03363745,3.06167203 L3.03363745,3.3949981 Z M4.30339736,3.3949981 L4.93827731,3.3949981 L4.93827731,3.06167203 L4.30339736,3.06167203 L4.30339736,3.3949981 Z M5.57315726,3.3949981 L6.20803722,3.3949981 L6.20803722,3.06167203 L5.57315726,3.06167203 L5.57315726,3.3949981 Z M6.84291717,3.3949981 L7.47779712,3.3949981 L7.47779712,3.06167203 L6.84291717,3.06167203 L6.84291717,3.3949981 Z M8.11267708,3.3949981 L8.74755703,3.3949981 L8.74755703,3.06167203 L8.11267708,3.06167203 L8.11267708,3.3949981 Z M9.38243698,3.3949981 L10.0173169,3.3949981 L10.0173169,3.06167203 L9.38243698,3.06167203 L9.38243698,3.3949981 Z M10.6521969,3.3949981 L11.2870768,3.3949981 L11.2870768,3.06167203 L10.6521969,3.06167203 L10.6521969,3.3949981 Z M11.9219568,3.3949981 L12.5568367,3.3949981 L12.5568367,3.06167203 L11.9219568,3.06167203 L11.9219568,3.3949981 Z M13.1917167,3.3949981 L13.8265967,3.3949981 L13.8265967,3.06167203 L13.1917167,3.06167203 L13.1917167,3.3949981 Z M14.4614766,3.3949981 L15.0963566,3.3949981 L15.0963566,3.06167203 L14.4614766,3.06167203 L14.4614766,3.3949981 Z M15.7312365,3.3949981 L16.3661165,3.3949981 L16.3661165,3.06167203 L15.7312365,3.06167203 L15.7312365,3.3949981 Z M17.0009964,3.3949981 L17.6358764,3.3949981 L17.6358764,3.06167203 L17.0009964,3.06167203 L17.0009964,3.3949981 Z M18.2707563,3.3949981 L18.9056363,3.3949981 L18.9056363,3.06167203 L18.2707563,3.06167203 L18.2707563,3.3949981 Z M19.5405162,3.3949981 L20.1753962,3.3949981 L20.1753962,3.06167203 L19.5405162,3.06167203 L19.5405162,3.3949981 Z M20.8102761,3.3949981 L21.4451561,3.3949981 L21.4451561,3.06167203 L20.8102761,3.06167203 L20.8102761,3.3949981 Z M22.080036,3.3949981 L22.714916,3.3949981 L22.714916,3.06167203 L22.080036,3.06167203 L22.080036,3.3949981 Z M23.3497959,3.3949981 L23.9846759,3.3949981 L23.9846759,3.06167203 L23.3497959,3.06167203 L23.3497959,3.3949981 Z M24.6195559,3.3949981 L25.1563373,3.3949981 L25.1563373,3.06167203 L24.6195559,3.06167203 L24.6195559,3.3949981 Z" id="Path-3-Copy" fill="#A9BECB" fill-rule="nonzero"></path>
                </g>
            </g>
        </g>
    </g>
</svg>