<?xml version="1.0" encoding="UTF-8"?>
<svg width="149px" height="39px" viewBox="0 0 149 39" version="1.1" xmlns="http://www.w3.org/2000/svg" xmlns:xlink="http://www.w3.org/1999/xlink">
    <title>Logo</title>
    <g id="Symbols" stroke="none" stroke-width="1" fill="none" fill-rule="evenodd">
        <g id="0.-Tools-/-Logotype-/-Color" transform="translate(0.000000, -9.000000)">
            <g id="Logo" transform="translate(0.000000, 9.000000)">
                <path d="M102.172,14.712 C104.505333,14.712 106.297333,15.2673333 107.548,16.378 C108.798667,17.4886667 109.424,19.164 109.424,21.404 L109.424,21.404 L109.424,30 L105.336,30 L105.336,28.124 L105.224847,28.3026389 C104.380224,29.5835463 102.886609,30.224 100.744,30.224 C99.5866667,30.224 98.5833333,30.028 97.734,29.636 C96.8846667,29.244 96.236,28.7026667 95.788,28.012 C95.34,27.3213333 95.116,26.5373333 95.116,25.66 C95.116,24.26 95.6433333,23.1586667 96.698,22.356 C97.7526667,21.5533333 99.3813333,21.152 101.584,21.152 L101.584,21.152 L105.056,21.152 L105.049972,20.9185694 C105.005769,20.079412 104.718444,19.4245556 104.188,18.954 C103.609333,18.4406667 102.741333,18.184 101.584,18.184 C100.781333,18.184 99.9926667,18.31 99.218,18.562 C98.4433333,18.814 97.7853333,19.1546667 97.244,19.584 L97.244,19.584 L95.676,16.532 L95.9558272,16.3439506 C96.7181646,15.8553909 97.6095556,15.4700741 98.63,15.188 C99.778,14.8706667 100.958667,14.712 102.172,14.712 Z M148.232,9.224 L148.232,30 L144.06,30 L144.06,28.264 L143.885019,28.4648864 C142.810936,29.6376288 141.301263,30.224 139.356,30.224 C137.937333,30.224 136.654,29.9066667 135.506,29.272 C134.358,28.6373333 133.457333,27.732 132.804,26.556 C132.150667,25.38 131.824,24.0173333 131.824,22.468 C131.824,20.9186667 132.150667,19.556 132.804,18.38 C133.457333,17.204 134.358,16.2986667 135.506,15.664 C136.654,15.0293333 137.937333,14.712 139.356,14.712 C141.278667,14.712 142.781333,15.3186667 143.864,16.532 L143.864,16.532 L143.864,9.224 L148.232,9.224 Z M62.484,15.16 C63.8466667,15.16 65.0693333,15.4773333 66.152,16.112 C67.2346667,16.7466667 68.084,17.6286667 68.7,18.758 C69.316,19.8873333 69.624,21.18 69.624,22.636 L69.624,22.636 L69.596,23.252 L57.276,23.252 L57.3025781,23.5355547 C57.4633594,24.9361016 58.0425,26.07825 59.04,26.962 C60.104,27.9046667 61.448,28.376 63.072,28.376 C63.9866667,28.376 64.8266667,28.2126667 65.592,27.886 C66.3573333,27.5593333 67.02,27.0786667 67.58,26.444 L67.58,26.444 L68.7,27.732 L68.4761728,27.9864198 C67.8631687,28.6464362 67.1211111,29.158963 66.25,29.524 C65.27,29.9346667 64.192,30.14 63.016,30.14 C61.504,30.14 60.1646667,29.818 58.998,29.174 C57.8313333,28.53 56.9213333,27.6386667 56.268,26.5 C55.6146667,25.3613333 55.288,24.0733333 55.288,22.636 C55.288,21.1986667 55.6006667,19.9106667 56.226,18.772 C56.8513333,17.6333333 57.71,16.7466667 58.802,16.112 C59.894,15.4773333 61.1213333,15.16 62.484,15.16 Z M8.164,10.4 L13.82,27.256 L19.672,10.4 L21.604,10.4 L27.372,27.34 L33.112,10.4 L35.1,10.4 L28.492,30 L26.308,30 L20.568,13.284 L14.8,30 L12.644,30 L6.036,10.4 L8.164,10.4 Z M40.364,15.272 L40.364,30 L38.376,30 L38.376,15.272 L40.364,15.272 Z M53.328,15.16 L53.328,17.092 L52.852,17.064 L52.5654375,17.0695781 C51.1523125,17.1253594 50.0345,17.5995 49.212,18.492 C48.3346667,19.444 47.896,20.7786667 47.896,22.496 L47.896,22.496 L47.896,30 L45.908,30 L45.908,15.272 L47.812,15.272 L47.812,18.156 L47.9334306,17.9137222 C48.3961435,17.0439074 49.051,16.378 49.898,15.916 C50.822,15.412 51.9653333,15.16 53.328,15.16 L53.328,15.16 Z M83.86,10.4 L83.86,26.304 L93.688,26.304 L93.688,30 L79.324,30 L79.324,10.4 L83.86,10.4 Z M122.528,14.712 C124.394667,14.712 125.902,15.272 127.05,16.392 C128.198,17.512 128.772,19.1733333 128.772,21.376 L128.772,21.376 L128.772,30 L124.404,30 L124.404,22.048 L124.399361,21.7776923 C124.362249,20.718 124.102462,19.9167692 123.62,19.374 C123.097333,18.786 122.341333,18.492 121.352,18.492 C120.250667,18.492 119.373333,18.8326667 118.72,19.514 C118.066667,20.1953333 117.74,21.208 117.74,22.552 L117.74,22.552 L117.74,30 L113.372,30 L113.372,14.936 L117.544,14.936 L117.544,16.7 L117.742074,16.4938025 C118.284099,15.9582305 118.936741,15.536963 119.7,15.23 C120.558667,14.8846667 121.501333,14.712 122.528,14.712 Z M105.056,23.7 L102.06,23.7 L101.840667,23.7030625 C100.194889,23.7500208 99.372,24.337 99.372,25.464 C99.372,26.024 99.5913333,26.4673333 100.03,26.794 C100.468667,27.1206667 101.070667,27.284 101.836,27.284 C102.582667,27.284 103.245333,27.1113333 103.824,26.766 C104.402667,26.4206667 104.813333,25.912 105.056,25.24 L105.056,25.24 L105.056,23.7 Z M140.112,18.296 C138.992,18.296 138.068,18.674 137.34,19.43 C136.612,20.186 136.248,21.1986667 136.248,22.468 C136.248,23.7373333 136.612,24.75 137.34,25.506 C138.068,26.262 138.992,26.64 140.112,26.64 C141.213333,26.64 142.128,26.262 142.856,25.506 C143.584,24.75 143.948,23.7373333 143.948,22.468 C143.948,21.1986667 143.584,20.186 142.856,19.43 C142.128,18.674 141.213333,18.296 140.112,18.296 Z M62.484,16.868 C61.0653333,16.868 59.8753333,17.3206667 58.914,18.226 C57.9526667,19.1313333 57.4066667,20.312 57.276,21.768 L57.276,21.768 L67.72,21.768 C67.5893333,20.312 67.0433333,19.1313333 66.082,18.226 C65.1206667,17.3206667 63.9213333,16.868 62.484,16.868 Z M39.384,9.224 C39.7946667,9.224 40.14,9.35933333 40.42,9.63 C40.7,9.90066667 40.84,10.2226667 40.84,10.596 C40.84,11.0066667 40.7,11.352 40.42,11.632 C40.14,11.912 39.7946667,12.052 39.384,12.052 C38.9733333,12.052 38.628,11.912 38.348,11.632 C38.068,11.352 37.928,11.016 37.928,10.624 C37.928,10.2506667 38.068,9.924 38.348,9.644 C38.628,9.364 38.9733333,9.224 39.384,9.224 Z" id="Text" fill="#238FCD"></path>
                <g id="Boundary-Box">
                    <path d="M1.89827083,1.90406903 L1.89827083,37.095931 L74.1017292,37.095931 L74.1017292,1.90406903 L1.89827083,1.90406903 Z M1,1 L75,1 L75,38 L1,38 L1,1 Z" id="Rectangle-3-Copy" fill="#B5D6EC" fill-rule="nonzero"></path>
                    <rect id="Rectangle-8-Copy-4" fill="#238FCD" x="0" y="0" width="3" height="3"></rect>
                    <polygon id="Rectangle-8-Copy-5" fill="#238FCD" points="0 36 3 36 3 39 0 39"></polygon>
                    <polygon id="Rectangle-8-Copy-6" fill="#238FCD" points="73 0 76 0 76 3 73 3"></polygon>
                    <polygon id="Rectangle-8-Copy-7" fill="#238FCD" points="73 36 76 36 76 39 73 39"></polygon>
                </g>
            </g>
        </g>
    </g>
</svg>